<?xml version="1.0" encoding="iso-8859-1"?>
<!-- Generator: Adobe Illustrator 16.0.0, SVG Export Plug-In . SVG Version: 6.00 Build 0)  -->
<!DOCTYPE svg PUBLIC "-//W3C//DTD SVG 1.1//EN" "http://www.w3.org/Graphics/SVG/1.1/DTD/svg11.dtd">
<svg version="1.1" xmlns="http://www.w3.org/2000/svg" xmlns:xlink="http://www.w3.org/1999/xlink" x="0px" y="0px" width="24px"
	 height="32px" viewBox="0 0 24 32" style="enable-background:new 0 0 24 32;" xml:space="preserve">
<g id="task-list">
	<path d="M19,5h-1.277C17.548,4.7,17.3,4.452,17,4.277V2c0-1.104-0.896-2-2-2H9C7.896,0,7,0.896,7,2v2.277
		C6.7,4.452,6.452,4.7,6.277,5H5c-2.762,0-5,2.238-5,5v17c0,2.762,2.238,5,5,5h14c2.762,0,5-2.238,5-5V10C24,7.238,21.762,5,19,5z
		 M10,2h4c0.553,0,1,0.447,1,1s-0.447,1-1,1h-4C9.447,4,9,3.553,9,3S9.447,2,10,2z M22,27c0,1.654-1.346,3-3,3H5
		c-1.654,0-3-1.346-3-3V10c0-1.654,1.346-3,3-3h1c0,1.657,1.343,3,3,3h6c1.657,0,3-1.343,3-3h1c1.654,0,3,1.346,3,3V27z"/>
	<path d="M18,14H6c-0.553,0-1,0.447-1,1s0.447,1,1,1h12c0.553,0,1-0.447,1-1S18.553,14,18,14z"/>
	<path d="M18,18H6c-0.553,0-1,0.447-1,1s0.447,1,1,1h12c0.553,0,1-0.447,1-1S18.553,18,18,18z"/>
	<path d="M18,22H6c-0.553,0-1,0.447-1,1s0.447,1,1,1h12c0.553,0,1-0.447,1-1S18.553,22,18,22z"/>
</g>
<g id="Layer_1">
</g>
</svg>
