<?xml version="1.0" encoding="iso-8859-1"?>
<!-- Generator: Adobe Illustrator 16.0.0, SVG Export Plug-In . SVG Version: 6.00 Build 0)  -->
<!DOCTYPE svg PUBLIC "-//W3C//DTD SVG 1.1//EN" "http://www.w3.org/Graphics/SVG/1.1/DTD/svg11.dtd">
<svg version="1.1" xmlns="http://www.w3.org/2000/svg" xmlns:xlink="http://www.w3.org/1999/xlink" x="0px" y="0px" width="32.07px"
	 height="32.07px" viewBox="0 0 32.07 32.07" style="enable-background:new 0 0 32.07 32.07;" xml:space="preserve">
<g id="brain">
	<path d="M32.07,17.535c0-2.244-0.808-4.271-2.143-5.463c0-0.012,0-0.025,0-0.037c0-2.559-1.677-4.747-4.125-5.615
		c-0.062-0.076-0.125-0.148-0.207-0.204c0.026-0.228,0.046-0.455,0.046-0.681C25.642,2.483,23.495,0,20.856,0h-2.821
		c-0.934,0-1.761,0.434-2.318,1.099C14.957,0.423,13.942,0,12.821,0h-1.607C8.575,0,6.429,2.483,6.429,5.535
		c0,0.265,0.018,0.532,0.054,0.799C3.913,7.145,2.143,9.4,2.143,12.035c0,0.012,0,0.024,0,0.037C0.808,13.263,0,15.291,0,17.535
		c0,1.122,0.206,2.211,0.599,3.182C0.206,21.575,0,22.539,0,23.535c0,2.983,1.725,5.346,3.975,5.524
		c1.167,1.825,3.546,3.011,6.167,3.011h2.893c1.196,0,2.26-0.533,3-1.362c0.74,0.829,1.804,1.362,3,1.362h2.893
		c2.621,0,5.001-1.186,6.168-3.011c2.25-0.179,3.975-2.541,3.975-5.524c0-0.995-0.206-1.959-0.599-2.818
		C31.864,19.745,32.07,18.656,32.07,17.535z M13.035,30h-2.893c-2.083,0-3.986-1-4.627-2.433c-0.168-0.376-0.541-0.612-0.944-0.612
		c-0.046,0-0.093,0.003-0.14,0.01L4.25,27c-0.627,0-1.197-0.454-1.599-1.154l3.832-1.916c0.419-0.21,0.637-0.683,0.523-1.137l-1-4
		c-0.134-0.537-0.679-0.86-1.213-0.728c-0.536,0.134-0.861,0.677-0.728,1.212l0.806,3.222l-2.777,1.389
		c-0.008-0.117-0.023-0.232-0.023-0.353c0-0.829,0.199-1.616,0.575-2.277c0.169-0.298,0.18-0.661,0.029-0.969
		c-0.395-0.803-0.604-1.755-0.604-2.754c0-1.632,0.59-3.157,1.488-3.938l2.863,2.227c0.179,0.139,0.396,0.21,0.614,0.21
		c0.152,0,0.306-0.035,0.447-0.105l2-1c0.494-0.247,0.694-0.848,0.447-1.342c-0.247-0.494-0.846-0.694-1.342-0.447l-1.436,0.718
		l-2.896-2.253C4.463,9.849,5.906,8.42,7.862,8.137c0.3-0.043,0.566-0.216,0.728-0.473s0.203-0.571,0.112-0.861
		C8.567,6.375,8.499,5.948,8.499,5.535c0-0.715,0.171-1.379,0.462-1.932l1.753,2.338L9.328,7.328c-0.391,0.391-0.391,1.023,0,1.414
		c0.195,0.195,0.451,0.293,0.707,0.293s0.512-0.098,0.707-0.293l2-2c0.352-0.352,0.392-0.909,0.093-1.307l-2.401-3.202
		c0.249-0.096,0.507-0.163,0.78-0.163h1.607C14.022,2.07,15,2.952,15,4.035v6.489l-1.965,1.31l-2.445-1.63
		c-0.461-0.307-1.081-0.183-1.387,0.277c-0.306,0.459-0.182,1.081,0.277,1.387l2.414,1.609l-0.829,3.316
		c-0.134,0.536,0.192,1.079,0.728,1.212c0.082,0.021,0.163,0.03,0.244,0.03c0.448,0,0.855-0.303,0.969-0.758l0.906-3.625L15,12.927
		v11.321l-3.201-1.921l-0.87-1.739c-0.247-0.494-0.846-0.692-1.342-0.447c-0.494,0.247-0.694,0.848-0.447,1.342l1,2
		c0.085,0.17,0.217,0.313,0.38,0.41l1.402,0.841l-1.594,1.595c-0.391,0.391-0.391,1.023,0,1.414
		c0.195,0.195,0.451,0.293,0.707,0.293s0.512-0.098,0.707-0.293l1.948-1.948L15,26.58v1.455C15,29.118,14.119,30,13.035,30z
		 M29.426,21.257C29.802,21.919,30,22.707,30,23.535c0,1.52-0.679,2.815-1.557,3.271l-1.467-4.106
		c-0.104-0.29-0.335-0.517-0.627-0.613c-0.292-0.098-0.613-0.055-0.869,0.117l-3,2c-0.46,0.307-0.584,0.927-0.277,1.387
		c0.306,0.459,0.926,0.583,1.387,0.277l1.935-1.29l1.056,2.954c-0.007,0.014-0.018,0.022-0.023,0.036C25.915,29,24.012,30,21.928,30
		h-2.893c-1.083,0-1.965-0.882-1.965-1.965v-5.547l0.965-0.772v2.319c0,0.553,0.447,1,1,1s1-0.447,1-1v-3.92l0.926-0.74l1.367,1.367
		c0.391,0.391,1.023,0.391,1.414,0s0.391-1.023,0-1.414l-2-2c-0.361-0.361-0.935-0.391-1.332-0.074l-3.34,2.672v-3.379l2.52-1.68
		c0.46-0.306,0.584-0.927,0.277-1.387c-0.306-0.46-0.927-0.584-1.387-0.277l-1.41,0.94V4.035v-1c0-0.532,0.433-0.965,0.965-0.965
		h2.821c0.379,0,0.739,0.101,1.067,0.281l-2.205,0.735c-0.324,0.108-0.571,0.375-0.653,0.706l-1,4
		c-0.135,0.536,0.191,1.079,0.728,1.213c0.081,0.021,0.163,0.03,0.243,0.03c0.448,0,0.855-0.303,0.969-0.757l0.867-3.468
		l2.409-0.803c0.18,0.463,0.29,0.977,0.29,1.528c0,0.414-0.067,0.841-0.201,1.268c-0.091,0.29-0.051,0.604,0.111,0.861
		c0.075,0.12,0.178,0.218,0.292,0.296l-0.52,2.075h-1.219c-0.553,0-1,0.448-1,1s0.447,1,1,1h2c0.459,0,0.858-0.313,0.97-0.757
		l0.669-2.676c1.322,0.682,2.184,1.97,2.184,3.433c0,0.063-0.013,0.124-0.021,0.185l-0.026,0.199
		c-0.043,0.384,0.132,0.76,0.452,0.975c0.018,0.012,0.033,0.029,0.051,0.041l-2.52,0.63c-0.445,0.111-0.758,0.511-0.758,0.97v3
		c0,0.553,0.447,1,1,1s1-0.447,1-1v-2.219l2.53-0.633C29.84,15.883,30,16.694,30,17.535c0,0.997-0.209,1.95-0.604,2.755
		C29.246,20.598,29.257,20.959,29.426,21.257z"/>
</g>
<g id="Layer_1">
</g>
</svg>
